<?xml version="1.0" encoding="utf-8"?>
<!-- Generator: Adobe Illustrator 18.1.1, SVG Export Plug-In . SVG Version: 6.00 Build 0)  -->
<svg version="1.1" id="cut" xmlns="http://www.w3.org/2000/svg" xmlns:xlink="http://www.w3.org/1999/xlink" x="0px" y="0px"
	 viewBox="0 90 573.7 581.8" enable-background="new 0 90 573.7 581.8" xml:space="preserve">
<path fill="#FFFFFF" d="M546.2,496.2c-39.9-62.3-108.2-89.7-152.7-61.2c-3.8,2.5-7.4,5.3-10.6,8.4l-47.5-74.3L445,197
	c9-16.6,12.3-36.3,7.9-56.2c-4.2-19-14.6-34.9-28.7-46.2l-7.3-4.7l-130,203.3L156.9,90l-7.3,4.7c-14.1,11.2-24.6,27.2-28.7,46.2
	c-4.4,19.9-1,39.6,7.9,56.2l109.6,172.1l-47.5,74.3c-3.2-3.1-6.8-5.9-10.6-8.4c-44.5-28.5-112.9-1.1-152.7,61.2S-8.5,632.1,36,660.5
	s112.9,1.1,152.7-61.2l98.2-154.1l98.2,154.1c39.9,62.3,108.2,89.7,152.7,61.2S586,558.5,546.2,496.2z M140.4,568.4
	c-17.9,28-41,41.7-56.5,45.1l0,0c-5.1,1.1-12.1,1.8-16.9-1.3c-5.3-3.4-8.8-12.4-9.4-24.1c-1-18.9,5.8-41.1,18.5-61
	c17.9-28,41-41.7,56.5-45.1c5.1-1.1,12.1-1.8,16.9,1.3c5.3,3.4,8.8,12.4,9.4,24.1C159.8,526.3,153.1,548.6,140.4,568.4L140.4,568.4z
	 M286.9,396c-10.6,0-19.1-8.6-19.1-19.1s8.6-19.1,19.1-19.1s19.1,8.6,19.1,19.1S297.4,396,286.9,396z M516.3,588.1
	c-0.6,11.7-4.1,20.7-9.4,24.1c-4.8,3.1-11.9,2.4-16.9,1.3l0,0c-15.6-3.4-38.6-17.1-56.5-45.1c-12.7-19.8-19.4-42.1-18.5-61
	c0.6-11.7,4.1-20.7,9.4-24.1c4.8-3.1,11.9-2.4,16.9-1.3c15.6,3.4,38.6,17.1,56.5,45.1C510.5,547,517.3,569.2,516.3,588.1
	L516.3,588.1z"/>
</svg>
