<?xml version="1.0" encoding="utf-8"?>
<!-- Generator: Adobe Illustrator 18.1.1, SVG Export Plug-In . SVG Version: 6.00 Build 0)  -->
<svg version="1.1" id="format" xmlns="http://www.w3.org/2000/svg" xmlns:xlink="http://www.w3.org/1999/xlink" x="0px" y="0px"
	 viewBox="0 128.2 612 573.8" enable-background="new 0 128.2 612 573.8" xml:space="preserve">
<path fill="#FFFFFF" d="M612,434.2V204.8H497.2v-38.2c0-21-17.2-38.2-38.2-38.2H38.2c-21,0-38.2,17.2-38.2,38.2v114.8
	c0,21,17.2,38.2,38.2,38.2H459c21,0,38.2-17.2,38.2-38.2V243h76.5v153H229.5v76.5h-19.1c-10.6,0-19.1,8.6-19.1,19.1v191.2
	c0,10.6,8.6,19.1,19.1,19.1h76.5c10.6,0,19.1-8.6,19.1-19.1V491.6c0-10.6-8.6-19.1-19.1-19.1h-19.1v-38.2H612z M459,204.8H38.2
	v-38.2H459V204.8z"/>
</svg>
