<?xml version="1.0" encoding="utf-8"?>
<!-- Generator: Adobe Illustrator 18.1.1, SVG Export Plug-In . SVG Version: 6.00 Build 0)  -->
<svg version="1.1" id="Layer_1" xmlns="http://www.w3.org/2000/svg" xmlns:xlink="http://www.w3.org/1999/xlink" x="0px" y="0px"
	 viewBox="-273 365 64 64" enable-background="new -273 365 64 64" xml:space="preserve">
<path d="M-211.6,399.1l-6.5-6.8v-16.3c0-0.7-0.5-1.3-1.1-1.3h-5.8c-0.3,0-0.6,0.1-0.8,0.4s-0.3,0.6-0.3,0.9l0,8l-14.3-14.9
	c-0.4-0.4-1-0.4-1.5,0l-29.7,30.2c-0.4,0.4-0.5,1-0.3,1.5c0.2,0.5,0.7,0.8,1.2,0.7l6.6-1.7v23.5c0,0.2,0,1.3,0.7,2.1
	c0.3,0.4,0.8,0.8,1.7,0.8c1.6,0,14.7,0,14.7,0c0.6,0,1.1-0.6,1.1-1.3l0-14.1c0-0.2,0-0.6,0.2-0.8c0.1-0.1,0.3-0.2,0.5-0.2h6.1
	c0.3,0,0.6,0.1,0.8,0.3c0.2,0.2,0.2,0.7,0.2,0.7l0,13.9c0,0.3,0.1,0.7,0.3,0.9c0.2,0.2,0.5,0.4,0.8,0.4h14.4c1,0,1.6-0.5,1.9-0.9
	c0.8-0.9,0.7-2.2,0.7-2.3v-23.5l7.3,2c0.5,0.1,1-0.1,1.2-0.6C-211.2,400.1-211.3,399.5-211.6,399.1z M-224,377.2h3.6V390l-3.5-3.7
	L-224,377.2z M-220.7,396.5c-0.3-0.1-0.7,0-0.9,0.2c-0.3,0.2-0.4,0.6-0.4,1v25.1c0,0.1,0,0.4-0.1,0.5c-0.1,0.1-0.2,0.1-0.3,0.1
	h-13.3l0-12.5c0-0.2,0.1-1.5-0.8-2.6c-0.4-0.5-1.2-1.1-2.5-1.1h-6.1c-1.1,0-1.8,0.5-2.1,1c-0.8,1-0.7,2.3-0.7,2.6l0,12.6
	c-3.2,0-12.3,0-13.6,0c0,0-0.1,0-0.1,0c0,0,0,0,0,0c0-0.1,0-0.1,0-0.2v-25.1c0-0.4-0.2-0.8-0.4-1c-0.3-0.2-0.6-0.3-0.9-0.2l-3.7,1
	l25.8-26.2l15,15.7v0.1h0.1l9.8,10.2L-220.7,396.5z"/>
</svg>
