<?xml version="1.0" encoding="utf-8"?>
<!-- Generator: Adobe Illustrator 18.1.1, SVG Export Plug-In . SVG Version: 6.00 Build 0)  -->
<svg version="1.1" id="Layer_1" xmlns="http://www.w3.org/2000/svg" xmlns:xlink="http://www.w3.org/1999/xlink" x="0px" y="0px"
	 viewBox="423.4 297.2 202.3 262.2" enable-background="new 423.4 297.2 202.3 262.2" xml:space="preserve">
<path fill="#4FA542" d="M625.5,418.4c-0.1-0.9-0.2-1.8-0.4-3c-0.4-2.3-0.8-4.4-1.5-6.5c-0.1-0.4-0.4-1.3-2.3-1.3
	c-2,0-3.9,0.5-6.4,1.3c-6.6,2.2-13.2,5.6-20.8,10.8c-0.3,0.2-0.5,0.3-1.2,0.7c-0.3,0.2-0.6,0.2-0.9,0.2c-0.5,0-1.1-0.2-1.6-0.6
	c-0.8-0.5-1.2-1.7-1-2.6c0-0.1,0.1-0.6,0.1-0.7c1.1-5.3,1.6-11,1.2-17.4c-0.3-6.5-1.3-12.5-2.9-18.4c-3.1-10.9-8.1-21.9-15.5-33.7
	c-7.8-12.5-17.3-24.3-28.1-35.1l-1.4-1.5c-5.5-5.5-10.6-10.7-17.5-13.5h-1.6l-0.6,0.3c-0.6,0.2-1.3,0.5-1.9,0.8
	c-3.3,1.7-6.2,4.1-8.5,6.2c-14.4,13-26.7,27.8-36.6,43.7c-6.8,10.9-11.5,21.3-14.6,31.6c-2,6.7-3.1,13.7-3.4,20.8
	c-0.1,4.5,0.1,8.6,0.6,12.4c0.1,1,0.3,2,0.5,3l0.3,1.8c0.2,1-0.2,2-1,2.6c-0.4,0.3-0.9,0.4-1.4,0.4c-0.4,0-0.9-0.1-1.3-0.4l-1.4-0.9
	c-8.2-5.6-15.3-9.1-22.5-11.2c-1.4-0.4-2.7-0.6-3.8-0.7h-0.5c-1.9,0-2.3,0.2-2.9,2.6c-0.4,1.8-0.7,3.7-0.9,5.8l-0.3,2.5
	c-0.1,0.6-0.1,1.2-0.2,1.8l-0.1,0.5l0,6.7l0.1,0.5c0.1,0.5,0.2,1,0.2,1.4c0.4,9.7,2.3,19.6,5.8,30.1c2.6,7.8,5.2,13.6,8.3,18.8
	c7.1,11.7,16.8,21.6,28.9,29.4c11.4,7.3,24.1,12.3,37.9,14.8c3.3,0.6,6.7,0.8,10.1,1.1c5.3,11.8,13.2,21.9,24.9,28.4
	c9,5,19.1,6.9,29.1,7.4l1.2-2.3c-5.2-1-10.7-2.4-15.4-5c-9.7-5.5-16.3-16.8-20.5-28.3c14.4-1.1,28.2-4.9,40.9-11.5
	c15.4-8,27.6-19.1,36.3-33.1c4.4-7,7.6-14.5,9.5-22.3l0.5-1.9c1.1-4.6,2.3-9.4,3.2-14.1c0.4-2.2,0.6-4.5,0.8-7
	c0.1-1.1,0.2-2.3,0.3-3.5c0-0.4,0.1-0.8,0.2-1.2l0,0l0-9.4L625.5,418.4z"/>
</svg>
