<?xml version="1.0" encoding="utf-8"?>
<!-- Generator: Adobe Illustrator 18.1.1, SVG Export Plug-In . SVG Version: 6.00 Build 0)  -->
<svg version="1.1" id="Layer_1" xmlns="http://www.w3.org/2000/svg" xmlns:xlink="http://www.w3.org/1999/xlink" x="0px" y="0px"
	 viewBox="94.3 604.2 147.1 190.7" enable-background="new 94.3 604.2 147.1 190.7" xml:space="preserve">
<filter  id="sun">
	<feGaussianBlur  stdDeviation="6" result="blur1"></feGaussianBlur>
	<feSpecularLighting  specularExponent="60" lighting-color="#cccccc" in="blur1" result="spec1">
		<fePointLight  z="400" y="200" x="100"></fePointLight>
	</feSpecularLighting>
	<feComposite  k4="0" k3="1" k2="1" k1="0" operator="arithmetic" in="SourceGraphic" in2="spec1"></feComposite>
</filter>
<g filter="url(#sun)">
	<path fill="#4FA542" d="M241.3,692.4c-0.1-0.7-0.1-1.3-0.3-2.2c-0.3-1.7-0.6-3.2-1.1-4.7c-0.1-0.3-0.3-0.9-1.7-0.9
		c-1.5,0-2.9,0.4-4.7,1c-4.8,1.6-9.6,4.1-15.1,7.8c-0.2,0.1-0.4,0.2-0.8,0.5c-0.2,0.1-0.4,0.2-0.7,0.2c-0.4,0-0.8-0.2-1.2-0.4
		c-0.6-0.4-0.8-1.2-0.8-1.9c0-0.1,0.1-0.4,0.1-0.5c0.8-3.9,1.1-8,0.9-12.7c-0.2-4.7-0.9-9.1-2.1-13.4c-2.2-7.9-5.9-15.9-11.3-24.5
		c-5.7-9.1-12.5-17.7-20.4-25.6l-1.1-1.1c-4-4-7.7-7.8-12.7-9.8h-1.1l-0.5,0.2c-0.5,0.2-0.9,0.3-1.4,0.5c-2.4,1.2-4.5,3-6.2,4.5
		c-10.5,9.5-19.4,20.2-26.7,31.8c-4.9,8-8.4,15.5-10.6,23c-1.4,4.9-2.3,10-2.4,15.2c-0.1,3.3,0,6.3,0.5,9c0.1,0.7,0.2,1.4,0.4,2.2
		l0.2,1.3c0.1,0.7-0.2,1.5-0.8,1.9c-0.3,0.2-0.6,0.3-1,0.3c-0.3,0-0.7-0.1-0.9-0.3l-1-0.7c-5.9-4.1-11.2-6.6-16.4-8.1
		c-1-0.3-1.9-0.5-2.7-0.5h-0.3c-1.3,0-1.7,0.2-2.1,1.9c-0.3,1.3-0.5,2.7-0.7,4.2l-0.2,1.8c-0.1,0.4-0.1,0.8-0.1,1.3l0,0.3l0,4.9
		l0.1,0.3c0.1,0.4,0.1,0.7,0.1,1.1c0.3,7.1,1.7,14.2,4.2,21.9c1.9,5.7,3.8,9.9,6.1,13.7c5.1,8.5,12.2,15.7,21,21.4
		c8.3,5.3,17.5,9,27.5,10.8c2.4,0.4,4.9,0.6,7.4,0.8c3.8,8.6,9.6,15.9,18.1,20.7c6.5,3.7,13.9,5,21.1,5.4l0.8-1.7
		c-3.8-0.8-7.8-1.7-11.2-3.6c-7-4-11.9-12.2-14.9-20.6c10.5-0.8,20.5-3.6,29.8-8.4c11.2-5.8,20.1-13.9,26.4-24.1
		c3.2-5.1,5.5-10.6,6.9-16.2l0.3-1.4c0.8-3.3,1.7-6.8,2.3-10.2c0.3-1.6,0.5-3.3,0.6-5.1c0.1-0.8,0.1-1.7,0.2-2.5
		c0-0.3,0.1-0.6,0.1-0.9l0,0l0-6.8L241.3,692.4z"/>
</g>
</svg>
