<?xml version="1.0" encoding="utf-8"?>
<!-- Generator: Adobe Illustrator 18.1.1, SVG Export Plug-In . SVG Version: 6.00 Build 0)  -->
<svg version="1.1" id="Layer_1" xmlns="http://www.w3.org/2000/svg" xmlns:xlink="http://www.w3.org/1999/xlink" x="0px" y="0px"
	 viewBox="-35.8 164.6 355.5 432.9" enable-background="new -35.8 164.6 355.5 432.9" xml:space="preserve">
<line fill="none" stroke="#4FA542" stroke-miterlimit="10" x1="194.4" y1="315.2" x2="194.4" y2="388.4"/>
<linearGradient id="SVGID_1_" gradientUnits="userSpaceOnUse" x1="-35.8" y1="453.108" x2="319.691" y2="453.108" gradientTransform="matrix(1 0 0 -1 0 795.44)">
	<stop  offset="0" style="stop-color:#94C125"/>
	<stop  offset="0.3265" style="stop-color:#84B92F"/>
	<stop  offset="0.9388" style="stop-color:#55A740"/>
	<stop  offset="1" style="stop-color:#4FA542"/>
</linearGradient>
<path fill="url(#SVGID_1_)" d="M319.7,464.7c0,30.6-24.8,55.4-55.4,55.4H19.6c-30.6,0-55.4-24.8-55.4-55.4V220
	c0-30.6,24.8-55.4,55.4-55.4h244.7c30.6,0,55.4,24.8,55.4,55.4L319.7,464.7L319.7,464.7z"/>
<g>
	
		<image overflow="visible" opacity="0.5" enable-background="new    " width="792" height="971" xlink:href="B6576A08694EA7EB.png"  transform="matrix(0.2391 0 0 0.238 15.4316 230.7122)">
	</image>
	<g>
		<path fill="#FFFFFF" d="M199,447.6c0,1.6-1.3,2.8-2.8,2.8H29.6c-1.6,0-2.8-1.3-2.8-2.8V239.2c0-1.6,1.3-2.8,2.8-2.8h166.5
			c1.6,0,2.8,1.3,2.8,2.8L199,447.6L199,447.6z"/>
	</g>
</g>
<path fill="#4FA542" d="M94.1,386.5c-2.4-1.7-5.8-1.1-7.5,1.4l-22.5,32.4l-9.7-10.4c-2-2.2-5.4-2.3-7.6-0.3c-2.2,2-2.3,5.4-0.3,7.6
	l14.2,15.3c0.1,0.1,0.3,0.2,0.5,0.3c0.1,0.1,0.2,0.3,0.4,0.4c0.2,0.1,0.4,0.2,0.6,0.3c0.2,0.1,0.3,0.2,0.5,0.2
	c0.6,0.2,1.2,0.4,1.8,0.4h0h0c0,0,0,0,0,0c0.6,0,1.2-0.1,1.8-0.3c0.1,0,0.3-0.1,0.4-0.1c0.6-0.2,1.1-0.6,1.6-1c0,0,0,0,0.1,0
	c0.1,0,0.1-0.1,0.1-0.1c0.2-0.2,0.5-0.4,0.6-0.7l26.3-37.8C97.2,391.5,96.6,388.2,94.1,386.5z"/>
<path fill="#4FA542" d="M127.6,313.5H54.7c-2,0-3.6-1.6-3.6-3.6c0-2,1.6-3.6,3.6-3.6h72.9c2,0,3.6,1.6,3.6,3.6
	C131.2,311.9,129.6,313.5,127.6,313.5z"/>
<path fill="#4FA542" d="M127.7,294.4H54.8c-2,0-3.6-1.6-3.6-3.6c0-2,1.6-3.6,3.6-3.6h72.9c2,0,3.6,1.6,3.6,3.6
	C131.3,292.8,129.7,294.4,127.7,294.4z"/>
<path fill="#4FA542" d="M127.6,274.8H54.7c-2,0-3.6-1.6-3.6-3.6c0-2,1.6-3.6,3.6-3.6h72.9c2,0,3.6,1.6,3.6,3.6
	C131.2,273.2,129.6,274.8,127.6,274.8z"/>
<path fill="#4FA542" d="M127.5,371.1H54.6c-2,0-3.6-1.6-3.6-3.6c0-2,1.6-3.6,3.6-3.6h72.9c2,0,3.6,1.6,3.6,3.6
	C131.1,369.4,129.5,371.1,127.5,371.1z"/>
<path fill="#4FA542" d="M127.6,332.8H54.7c-2,0-3.6-1.6-3.6-3.6c0-2,1.6-3.6,3.6-3.6h72.9c2,0,3.6,1.6,3.6,3.6
	C131.2,331.2,129.6,332.8,127.6,332.8z"/>
<path fill="#4FA542" d="M127.8,351.8H54.8c-2,0-3.6-1.6-3.6-3.6c0-2,1.6-3.6,3.6-3.6h72.9c2,0,3.6,1.6,3.6,3.6
	C131.4,350.2,129.8,351.8,127.8,351.8z"/>
<g>
	
		<image overflow="visible" opacity="0.5" enable-background="new    " width="683" height="1367" xlink:href="B6576A08694EA7E9.png"  transform="matrix(0.2386 0 0 0.2388 107.4282 182.4842)">
	</image>
	<g>
		
			<linearGradient id="SVGID_2_" gradientUnits="userSpaceOnUse" x1="118.767" y1="452.6404" x2="264.646" y2="452.6404" gradientTransform="matrix(1 0 0 -1 0 795.44)">
			<stop  offset="0" style="stop-color:#FFFFFF"/>
			<stop  offset="0.4306" style="stop-color:#FEFEFE"/>
			<stop  offset="0.5858" style="stop-color:#FAFCF9"/>
			<stop  offset="0.6963" style="stop-color:#F3F7F0"/>
			<stop  offset="0.7857" style="stop-color:#E9F1E3"/>
			<stop  offset="0.8622" style="stop-color:#DBE8D1"/>
			<stop  offset="0.9289" style="stop-color:#CBDEBB"/>
			<stop  offset="0.9745" style="stop-color:#BBD4A8"/>
		</linearGradient>
		<path fill="url(#SVGID_2_)" d="M264.6,442.8c0,1.6-1.2,3.3-2.7,3.8l-140.5,50.7c-1.5,0.5-2.7-0.3-2.7-1.9V190.2
			c0-1.6,1.2-2.4,2.7-1.9L262,238.2c1.5,0.5,2.7,2.2,2.7,3.8V442.8z"/>
	</g>
</g>
<path fill="#4FA542" d="M237.4,338.1c0-0.4-0.1-0.8-0.2-1.3c-0.2-1-0.4-1.9-0.6-2.8c-0.1-0.2-0.2-0.5-1-0.5c-0.9,0-1.7,0.2-2.7,0.6
	c-2.8,0.9-5.6,2.4-8.8,4.6c-0.1,0.1-0.2,0.1-0.5,0.3c-0.1,0.1-0.3,0.1-0.4,0.1c-0.2,0-0.5-0.1-0.7-0.2c-0.3-0.2-0.5-0.7-0.4-1.1
	c0,0,0-0.3,0-0.3c0.5-2.3,0.7-4.7,0.5-7.4c-0.1-2.7-0.5-5.3-1.2-7.8c-1.3-4.6-3.5-9.3-6.6-14.3c-3.3-5.3-7.3-10.4-11.9-14.9
	l-0.6-0.6c-2.3-2.3-4.5-4.6-7.4-5.7h-0.7l-0.3,0.1c-0.3,0.1-0.5,0.2-0.8,0.3c-1.4,0.7-2.6,1.7-3.6,2.7c-6.1,5.5-11.4,11.8-15.6,18.6
	c-2.9,4.7-4.9,9.1-6.2,13.5c-0.8,2.9-1.3,5.8-1.4,8.9c-0.1,1.9,0,3.7,0.3,5.3c0.1,0.4,0.1,0.8,0.2,1.3l0.1,0.8
	c0.1,0.4-0.1,0.9-0.4,1.1c-0.2,0.1-0.4,0.2-0.6,0.2c-0.2,0-0.4-0.1-0.6-0.2l-0.6-0.4c-3.5-2.4-6.5-3.9-9.6-4.8
	c-0.6-0.2-1.1-0.3-1.6-0.3h-0.2c-0.8,0-1,0.1-1.2,1.1c-0.2,0.8-0.3,1.6-0.4,2.5l-0.1,1.1c0,0.2-0.1,0.5-0.1,0.7l0,0.2l0,2.9l0,0.2
	c0,0.2,0.1,0.4,0.1,0.6c0.2,4.1,1,8.3,2.5,12.8c1.1,3.3,2.2,5.8,3.5,8c3,5,7.1,9.2,12.3,12.5c4.8,3.1,10.3,5.2,16.1,6.3
	c1.4,0.3,2.9,0.3,4.3,0.5c2.2,5,5.6,9.3,10.6,12.1c3.8,2.1,8.1,3,12.4,3.1l0.5-1c-2.2-0.4-4.6-1-6.5-2.1c-4.1-2.3-6.9-7.2-8.7-12
	c6.1-0.5,12-2.1,17.4-4.9c6.5-3.4,11.7-8.1,15.4-14.1c1.9-3,3.2-6.2,4-9.5l0.2-0.8c0.5-2,1-4,1.4-6c0.2-1,0.3-1.9,0.4-3
	c0-0.5,0.1-1,0.1-1.5c0-0.2,0-0.4,0.1-0.5l0,0l0-4L237.4,338.1z"/>
<g>
	<path fill="#4FA542" d="M115.5,556v20.9c0,9.4-6.6,15.7-15.3,15.7c-8.7,0-15.3-6.3-15.3-15.7V556h6.6v20.9c0,5.5,4,9.4,8.7,9.4
		s8.7-3.9,8.7-9.4V556H115.5z"/>
	<path fill="#4FA542" d="M124.2,544.2c2.5,0,4,1.9,4,4c0,2-1.4,4-4,4c-2.5,0-4-1.9-4-4C120.2,546.1,121.6,544.2,124.2,544.2z
		 M120.9,591.9v-35.8h6.6v35.8H120.9z"/>
	<path fill="#4FA542" d="M132.9,592v-20.9c0-9.4,6.6-15.7,15.3-15.7c8.7,0,15.3,6.3,15.3,15.7V592H157v-20.9c0-5.5-4-9.4-8.7-9.4
		c-4.7,0-8.7,3.9-8.7,9.4V592H132.9z"/>
	<path fill="#4FA542" d="M187.5,555.5c9.9,0,18.6,7.6,18.6,18.7c0,11-8.7,18.7-18.6,18.7c-9.9,0-18.6-7.6-18.6-18.7
		C168.9,563.1,177.6,555.5,187.5,555.5z M187.5,586.6c6.8,0,11.7-5.1,11.7-12.4c0-7.3-4.9-12.4-11.7-12.4s-11.7,5.1-11.7,12.4
		C175.8,581.5,180.7,586.6,187.5,586.6z"/>
	<path fill="#4FA542" d="M230.9,562.4h-12.8v18.8c0,3.4,1.6,4.5,4.9,4.5h7.9v6.3h-8.8c-6.7,0-10.6-4.5-10.6-11.6v-33.2h6.6v9h12.8
		V562.4z"/>
	<path fill="#4FA542" d="M82.7,585.1l-0.7,0.1c0,0.7,0,1.3-0.2,2c-0.8,3.2-4,4.7-7.1,3.9c-3.8-1-6.3-4.1-8.2-7.4l-2.4-4.6
		c-2.9-5.6-7.2-10-13.4-11.6c-3.4-0.9-6.9-0.6-10.3,0.1l-0.2,0.8c1.8-0.1,3.8-0.2,5.5,0.3c5.2,1.3,9.3,7.2,11.5,11.9l1.9,4
		c2.2,4.9,5.3,11.1,10.9,12.5c5.7,1.5,10.8-1.6,12.2-7.4C82.9,588.2,82.9,586.8,82.7,585.1z"/>
	<g>
		<path fill="#4FA542" d="M240.1,574.5c0.1,6,4.3,11.5,11,11.5c5.4,0,8.3-2.6,11-6.8l6,3.2c-3.5,6-9.9,9.5-17,9.5
			c-11.2,0-18-8-18-18.3c0-10.7,6-18.7,17.9-18.7c11.7,0,17.2,8.2,17.2,18.5v1L240.1,574.5L240.1,574.5z M261,569.5
			c-0.9-5.2-4.5-8.7-10.1-8.7c-5.5,0-9.6,3.7-10.4,8.7H261L261,569.5z"/>
	</g>
	<path fill="#4FA542" d="M50.6,591.9c-15.8,0-28.7-12.9-28.7-28.7c0-15.8,12.9-28.7,28.7-28.7c15.8,0,28.7,12.9,28.7,28.7
		C79.3,579,66.5,591.9,50.6,591.9z M50.6,542.1c-11.6,0-21.1,9.5-21.1,21.1c0,11.6,9.5,21.1,21.1,21.1c11.6,0,21.1-9.5,21.1-21.1
		C71.7,551.6,62.3,542.1,50.6,542.1z"/>
</g>
</svg>
