<?xml version="1.0" encoding="utf-8"?>
<!-- Generator: Adobe Illustrator 18.1.1, SVG Export Plug-In . SVG Version: 6.00 Build 0)  -->
<svg version="1.1" id="Layer_1" xmlns="http://www.w3.org/2000/svg" xmlns:xlink="http://www.w3.org/1999/xlink" x="0px" y="0px"
	 viewBox="-43.2 220.4 355.5 355.5" enable-background="new -43.2 220.4 355.5 355.5" xml:space="preserve">
<line fill="none" stroke="#4FA542" stroke-miterlimit="10" x1="187" y1="371" x2="187" y2="444.2"/>
<linearGradient id="SVGID_1_" gradientUnits="userSpaceOnUse" x1="-43.198" y1="397.333" x2="312.293" y2="397.333" gradientTransform="matrix(1 0 0 -1 0 795.44)">
	<stop  offset="0" style="stop-color:#94C125"/>
	<stop  offset="0.3265" style="stop-color:#84B92F"/>
	<stop  offset="0.9388" style="stop-color:#55A740"/>
	<stop  offset="1" style="stop-color:#4FA542"/>
</linearGradient>
<path fill="url(#SVGID_1_)" d="M312.3,520.5c0,30.6-24.8,55.4-55.4,55.4H12.2c-30.6,0-55.4-24.8-55.4-55.4V275.8
	c0-30.6,24.8-55.4,55.4-55.4h244.7c30.6,0,55.4,24.8,55.4,55.4V520.5z"/>
<g>
	
		<image overflow="visible" opacity="0.5" enable-background="new    " width="792" height="967" xlink:href="12501471D43932DE.png"  transform="matrix(0.2391 0 0 0.239 8.0342 286.4876)">
	</image>
	<g>
		<path fill="#FFFFFF" d="M191.6,503.4c0,1.6-1.3,2.8-2.8,2.8H22.2c-1.6,0-2.8-1.3-2.8-2.8V295c0-1.6,1.3-2.8,2.8-2.8h166.5
			c1.6,0,2.8,1.3,2.8,2.8L191.6,503.4L191.6,503.4z"/>
	</g>
</g>
<path fill="#4FA542" d="M86.7,442.2c-2.4-1.7-5.8-1.1-7.5,1.4l-22.5,32.4l-9.7-10.4c-2-2.2-5.4-2.3-7.6-0.3c-2.2,2-2.3,5.4-0.3,7.6
	l14.2,15.3c0.1,0.1,0.3,0.2,0.5,0.3c0.1,0.1,0.2,0.3,0.4,0.4c0.2,0.1,0.4,0.2,0.6,0.3c0.2,0.1,0.3,0.2,0.5,0.2
	c0.6,0.2,1.2,0.4,1.8,0.4h0h0c0,0,0,0,0,0c0.6,0,1.2-0.1,1.8-0.3c0.1,0,0.3-0.1,0.4-0.1c0.6-0.2,1.1-0.6,1.6-1c0,0,0,0,0.1,0
	c0.1,0,0.1-0.1,0.1-0.1c0.2-0.2,0.5-0.4,0.6-0.7l26.3-37.8C89.8,447.3,89.2,443.9,86.7,442.2z"/>
<path fill="#4FA542" d="M120.2,369.3H47.3c-2,0-3.6-1.6-3.6-3.6c0-2,1.6-3.6,3.6-3.6h72.9c2,0,3.6,1.6,3.6,3.6
	C123.8,367.7,122.2,369.3,120.2,369.3z"/>
<path fill="#4FA542" d="M120.3,350.1H47.4c-2,0-3.6-1.6-3.6-3.6c0-2,1.6-3.6,3.6-3.6h72.9c2,0,3.6,1.6,3.6,3.6
	C123.9,348.5,122.3,350.1,120.3,350.1z"/>
<path fill="#4FA542" d="M120.2,330.6H47.3c-2,0-3.6-1.6-3.6-3.6c0-2,1.6-3.6,3.6-3.6h72.9c2,0,3.6,1.6,3.6,3.6
	C123.8,328.9,122.2,330.6,120.2,330.6z"/>
<path fill="#4FA542" d="M120.1,426.8H47.2c-2,0-3.6-1.6-3.6-3.6c0-2,1.6-3.6,3.6-3.6h72.9c2,0,3.6,1.6,3.6,3.6
	C123.7,425.2,122.1,426.8,120.1,426.8z"/>
<path fill="#4FA542" d="M120.2,388.5H47.3c-2,0-3.6-1.6-3.6-3.6c0-2,1.6-3.6,3.6-3.6h72.9c2,0,3.6,1.6,3.6,3.6
	C123.8,386.9,122.2,388.5,120.2,388.5z"/>
<path fill="#4FA542" d="M120.4,407.5H47.4c-2,0-3.6-1.6-3.6-3.6c0-2,1.6-3.6,3.6-3.6h72.9c2,0,3.6,1.6,3.6,3.6
	C124,405.9,122.4,407.5,120.4,407.5z"/>
<g>
	
		<image overflow="visible" opacity="0.5" enable-background="new    " width="679" height="1363" xlink:href="12501471D43932E2.png"  transform="matrix(0.24 0 0 0.2395 100.0308 238.2596)">
	</image>
	<g>
		
			<linearGradient id="SVGID_2_" gradientUnits="userSpaceOnUse" x1="111.369" y1="396.8649" x2="257.248" y2="396.8649" gradientTransform="matrix(1 0 0 -1 0 795.44)">
			<stop  offset="0" style="stop-color:#FFFFFF"/>
			<stop  offset="0.4306" style="stop-color:#FEFEFE"/>
			<stop  offset="0.5858" style="stop-color:#FAFCF9"/>
			<stop  offset="0.6963" style="stop-color:#F3F7F0"/>
			<stop  offset="0.7857" style="stop-color:#E9F1E3"/>
			<stop  offset="0.8622" style="stop-color:#DBE8D1"/>
			<stop  offset="0.9289" style="stop-color:#CBDEBB"/>
			<stop  offset="0.9745" style="stop-color:#BBD4A8"/>
		</linearGradient>
		<path fill="url(#SVGID_2_)" d="M257.2,498.6c0,1.6-1.2,3.3-2.7,3.8L114,553.1c-1.5,0.5-2.7-0.3-2.7-1.9V246c0-1.6,1.2-2.4,2.7-1.9
			L254.6,294c1.5,0.5,2.7,2.2,2.7,3.8V498.6z"/>
	</g>
</g>
<path fill="#4FA542" d="M230,393.9c0-0.4-0.1-0.8-0.2-1.3c-0.2-1-0.4-1.9-0.6-2.8c-0.1-0.2-0.2-0.5-1-0.5c-0.9,0-1.7,0.2-2.7,0.6
	c-2.8,0.9-5.6,2.4-8.8,4.6c-0.1,0.1-0.2,0.1-0.5,0.3c-0.1,0.1-0.3,0.1-0.4,0.1c-0.2,0-0.5-0.1-0.7-0.2c-0.3-0.2-0.5-0.7-0.4-1.1
	c0,0,0-0.3,0-0.3c0.5-2.3,0.7-4.7,0.5-7.4c-0.1-2.7-0.5-5.3-1.2-7.8c-1.3-4.6-3.5-9.3-6.6-14.3c-3.3-5.3-7.3-10.4-11.9-14.9
	l-0.6-0.6c-2.3-2.3-4.5-4.6-7.4-5.7h-0.7l-0.3,0.1c-0.3,0.1-0.5,0.2-0.8,0.3c-1.4,0.7-2.6,1.7-3.6,2.7c-6.1,5.5-11.4,11.8-15.6,18.6
	c-2.9,4.6-4.9,9.1-6.2,13.5c-0.8,2.9-1.3,5.8-1.4,8.9c-0.1,1.9,0,3.7,0.3,5.3c0.1,0.4,0.1,0.8,0.2,1.3l0.1,0.8
	c0.1,0.4-0.1,0.9-0.4,1.1c-0.2,0.1-0.4,0.2-0.6,0.2c-0.2,0-0.4-0.1-0.6-0.2l-0.6-0.4c-3.5-2.4-6.5-3.9-9.6-4.8
	c-0.6-0.2-1.1-0.3-1.6-0.3h-0.2c-0.8,0-1,0.1-1.2,1.1c-0.2,0.8-0.3,1.6-0.4,2.5l-0.1,1.1c0,0.2-0.1,0.5-0.1,0.7l0,0.2l0,2.9l0,0.2
	c0,0.2,0.1,0.4,0.1,0.6c0.2,4.1,1,8.3,2.5,12.8c1.1,3.3,2.2,5.8,3.5,8c3,5,7.1,9.2,12.3,12.5c4.8,3.1,10.3,5.2,16.1,6.3
	c1.4,0.3,2.9,0.3,4.3,0.5c2.2,5,5.6,9.3,10.6,12.1c3.8,2.1,8.1,3,12.4,3.1l0.5-1c-2.2-0.4-4.6-1-6.5-2.1c-4.1-2.3-6.9-7.2-8.7-12
	c6.1-0.5,12-2.1,17.4-4.9c6.5-3.4,11.7-8.1,15.4-14.1c1.9-3,3.2-6.2,4-9.5l0.2-0.8c0.5-2,1-4,1.4-6c0.2-1,0.3-1.9,0.4-3
	c0-0.5,0.1-1,0.1-1.5c0-0.2,0-0.4,0.1-0.5l0,0l0-4L230,393.9z"/>
</svg>
