<?xml version="1.0" encoding="utf-8"?>
<!-- Generator: Adobe Illustrator 18.1.1, SVG Export Plug-In . SVG Version: 6.00 Build 0)  -->
<svg version="1.1" id="Layer_1" xmlns="http://www.w3.org/2000/svg" xmlns:xlink="http://www.w3.org/1999/xlink" x="0px" y="0px"
	 viewBox="-273 365 64 64" enable-background="new -273 365 64 64" xml:space="preserve">
<g>
	<path fill="#010002" d="M-218.3,390.5c0-0.1,0-0.2-0.1-0.3c0,0,0-0.1,0-0.1c-0.1-0.1-0.1-0.2-0.2-0.3l-21.2-21.6
		c-0.1-0.1-0.2-0.2-0.3-0.2c0,0-0.1,0-0.1,0c-0.1,0-0.2-0.1-0.3-0.1c0,0,0,0-0.1,0h-21.8c-0.6,0-1.2,0.5-1.2,1.2v56
		c0,0.7,0.5,1.2,1.2,1.2h43c0.6,0,1.2-0.5,1.2-1.2L-218.3,390.5C-218.3,390.6-218.3,390.6-218.3,390.5z M-222.3,389.4h-17.3v-17.6
		L-222.3,389.4z M-261.4,423.8v-53.7h19.5v20.4c0,0.7,0.5,1.2,1.2,1.2h20.1v32.1H-261.4L-261.4,423.8z"/>
</g>
</svg>
