<?xml version="1.0" encoding="utf-8"?>
<!-- Generator: Adobe Illustrator 18.1.1, SVG Export Plug-In . SVG Version: 6.00 Build 0)  -->
<svg version="1.1" id="Layer_1" xmlns="http://www.w3.org/2000/svg" xmlns:xlink="http://www.w3.org/1999/xlink" x="0px" y="0px"
	 viewBox="115 99.7 841.9 595.3" enable-background="new 115 99.7 841.9 595.3" xml:space="preserve">
<linearGradient id="SVGID_1_" gradientUnits="userSpaceOnUse" x1="115" y1="400.08" x2="956.891" y2="400.08" gradientTransform="matrix(1 0 0 -1 0 797.4399)">
	<stop  offset="0" style="stop-color:#94C125"/>
	<stop  offset="0.3265" style="stop-color:#84B92F"/>
	<stop  offset="0.9388" style="stop-color:#55A740"/>
	<stop  offset="1" style="stop-color:#4FA542"/>
</linearGradient>
<rect x="115" y="99.7" fill="url(#SVGID_1_)" width="841.9" height="595.3"/>
<g>
	<path fill="#FFFFFF" d="M1178.9,495.4v15.8c0,7.1-5,11.8-11.5,11.8c-6.6,0-11.5-4.7-11.5-11.8v-15.8h4.9v15.8c0,4.2,3,7.1,6.6,7.1
		c3.5,0,6.6-2.9,6.6-7.1v-15.8H1178.9z"/>
	<path fill="#FFFFFF" d="M1185.4,486.5c1.9,0,3,1.5,3,3c0,1.5-1.1,3-3,3c-1.9,0-3-1.5-3-3C1182.5,487.9,1183.5,486.5,1185.4,486.5z
		 M1183,522.5v-27h4.9v27H1183z"/>
	<path fill="#FFFFFF" d="M1192,522.6v-15.8c0-7.1,4.9-11.8,11.5-11.8c6.6,0,11.5,4.7,11.5,11.8v15.8h-5v-15.8c0-4.2-3-7.1-6.6-7.1
		s-6.6,2.9-6.6,7.1v15.8H1192z"/>
	<path fill="#FFFFFF" d="M1233.2,495c7.5,0,14,5.7,14,14.1c0,8.3-6.5,14.1-14,14.1c-7.5,0-14-5.7-14-14.1
		C1219.2,500.8,1225.7,495,1233.2,495z M1233.2,518.5c5.1,0,8.8-3.8,8.8-9.3c0-5.5-3.7-9.3-8.8-9.3c-5.1,0-8.8,3.8-8.8,9.3
		C1224.3,514.6,1228,518.5,1233.2,518.5z"/>
	<path fill="#FFFFFF" d="M1265.9,500.2h-9.7v14.2c0,2.5,1.2,3.4,3.7,3.4h6v4.7h-6.6c-5.1,0-8-3.4-8-8.7v-25h4.9v6.7h9.7V500.2
		L1265.9,500.2z"/>
	<path fill="#FFFFFF" d="M1154.2,517.3l-0.5,0.1c0,0.5,0,1-0.1,1.5c-0.6,2.4-3,3.5-5.3,2.9c-2.9-0.7-4.7-3.1-6.2-5.6l-1.8-3.4
		c-2.2-4.2-5.4-7.5-10.1-8.7c-2.5-0.6-5.2-0.4-7.7,0.1l-0.2,0.6c1.4-0.1,2.8-0.1,4.1,0.2c3.9,1,7,5.4,8.7,8.9l1.5,3
		c1.7,3.7,4,8.3,8.2,9.4c4.3,1.1,8.1-1.2,9.2-5.5C1154.3,519.7,1154.3,518.6,1154.2,517.3z"/>
	<g>
		<path fill="#FFFFFF" d="M1272.8,509.4c0.1,4.5,3.2,8.7,8.3,8.7c4.1,0,6.3-2,8.3-5.1l4.5,2.4c-2.6,4.5-7.4,7.2-12.8,7.2
			c-8.4,0-13.6-6.1-13.6-13.8c0-8.1,4.5-14.1,13.5-14.1c8.8,0,12.9,6.2,12.9,14v0.8L1272.8,509.4L1272.8,509.4z M1288.5,505.5
			c-0.6-3.9-3.4-6.6-7.6-6.6c-4.1,0-7.2,2.8-7.9,6.6H1288.5z"/>
	</g>
	<path fill="#FFFFFF" d="M1130,522.5c-11.9,0-21.6-9.7-21.6-21.6c0-11.9,9.7-21.6,21.6-21.6s21.6,9.7,21.6,21.6
		C1151.7,512.8,1141.9,522.5,1130,522.5z M1130,484.9c-8.8,0-15.9,7.1-15.9,15.9s7.1,15.9,15.9,15.9c8.8,0,15.9-7.1,15.9-15.9
		C1145.9,492.1,1138.8,484.9,1130,484.9z"/>
</g>
<g>
	<line fill="none" stroke="#4FA542" stroke-miterlimit="10" x1="1238.2" y1="320.3" x2="1238.2" y2="379"/>
	<g>
		
			<image overflow="visible" opacity="0.5" enable-background="new    " width="650" height="792" xlink:href="E247A254F65A5981.png"  transform="matrix(0.2389 0 0 0.2385 1092.3521 251.3405)">
		</image>
		<g>
			<path fill="#FFFFFF" d="M1241.9,425.9c0,1.6-1.3,2.8-2.8,2.8h-132.5c-1.6,0-2.8-1.3-2.8-2.8V259.8c0-1.6,1.3-2.8,2.8-2.8H1239
				c1.6,0,2.8,1.3,2.8,2.8V425.9L1241.9,425.9z"/>
		</g>
	</g>
	<path fill="#4FA542" d="M1157.7,377.4c-2-1.4-4.6-0.9-6,1.1l-18,26l-7.8-8.4c-1.6-1.8-4.3-1.8-6.1-0.2c-1.7,1.6-1.8,4.3-0.2,6.1
		l11.4,12.3c0.1,0.1,0.3,0.2,0.4,0.3c0.1,0.1,0.2,0.2,0.3,0.3c0.1,0.1,0.3,0.2,0.5,0.2c0.1,0.1,0.3,0.1,0.4,0.2
		c0.5,0.2,0.9,0.3,1.4,0.3h0h0c0,0,0,0,0,0c0.5,0,1-0.1,1.4-0.2c0.1,0,0.2-0.1,0.3-0.1c0.5-0.2,0.9-0.4,1.3-0.8c0,0,0,0,0.1,0
		c0,0,0.1-0.1,0.1-0.1c0.2-0.2,0.4-0.4,0.5-0.6l21.1-30.3C1160.2,381.5,1159.7,378.8,1157.7,377.4z"/>
	<path fill="#4FA542" d="M1184.6,318.9h-58.5c-1.6,0-2.9-1.3-2.9-2.9c0-1.6,1.3-2.9,2.9-2.9h58.5c1.6,0,2.9,1.3,2.9,2.9
		C1187.5,317.6,1186.2,318.9,1184.6,318.9z"/>
	<path fill="#4FA542" d="M1184.7,303.5h-58.5c-1.6,0-2.9-1.3-2.9-2.9c0-1.6,1.3-2.9,2.9-2.9h58.5c1.6,0,2.9,1.3,2.9,2.9
		C1187.6,302.3,1186.3,303.5,1184.7,303.5z"/>
	<path fill="#4FA542" d="M1184.6,287.8h-58.5c-1.6,0-2.9-1.3-2.9-2.9c0-1.6,1.3-2.9,2.9-2.9h58.5c1.6,0,2.9,1.3,2.9,2.9
		C1187.5,286.5,1186.2,287.8,1184.6,287.8z"/>
	<path fill="#4FA542" d="M1184.5,365.1H1126c-1.6,0-2.9-1.3-2.9-2.9c0-1.6,1.3-2.9,2.9-2.9h58.5c1.6,0,2.9,1.3,2.9,2.9
		C1187.4,363.8,1186.1,365.1,1184.5,365.1z"/>
	<path fill="#4FA542" d="M1184.6,334.3h-58.5c-1.6,0-2.9-1.3-2.9-2.9c0-1.6,1.3-2.9,2.9-2.9h58.5c1.6,0,2.9,1.3,2.9,2.9
		C1187.5,333.1,1186.2,334.3,1184.6,334.3z"/>
	<path fill="#4FA542" d="M1184.7,349.6h-58.5c-1.6,0-2.9-1.3-2.9-2.9c0-1.6,1.3-2.9,2.9-2.9h58.5c1.6,0,2.9,1.3,2.9,2.9
		C1187.6,348.3,1186.3,349.6,1184.7,349.6z"/>
	<g>
		
			<image overflow="visible" opacity="0.5" enable-background="new    " width="563" height="1108" xlink:href="E247A254F65A5983.png"  transform="matrix(0.2383 0 0 0.2391 1166.1719 212.7985)">
		</image>
		<g>
			
				<linearGradient id="SVGID_2_" gradientUnits="userSpaceOnUse" x1="1177.509" y1="455.0394" x2="1294.5659" y2="455.0394" gradientTransform="matrix(1 0 0 -1 0 797.4399)">
				<stop  offset="0" style="stop-color:#FFFFFF"/>
				<stop  offset="0.4306" style="stop-color:#FEFEFE"/>
				<stop  offset="0.5858" style="stop-color:#FAFCF9"/>
				<stop  offset="0.6963" style="stop-color:#F3F7F0"/>
				<stop  offset="0.7857" style="stop-color:#E9F1E3"/>
				<stop  offset="0.8622" style="stop-color:#DBE8D1"/>
				<stop  offset="0.9289" style="stop-color:#CBDEBB"/>
				<stop  offset="0.9745" style="stop-color:#BBD4A8"/>
			</linearGradient>
			<path fill="url(#SVGID_2_)" d="M1294.6,422.1c0,1.6-1.2,3.3-2.7,3.8l-111.7,40.3c-1.5,0.5-2.7-0.3-2.7-1.9V220.5
				c0-1.6,1.2-2.4,2.7-1.9l111.7,39.7c1.5,0.5,2.7,2.2,2.7,3.8L1294.6,422.1L1294.6,422.1z"/>
		</g>
	</g>
	<path fill="#4FA542" d="M1272.7,338.7c0-0.3-0.1-0.6-0.1-1c-0.1-0.8-0.3-1.5-0.5-2.2c0-0.1-0.1-0.4-0.8-0.4c-0.7,0-1.3,0.2-2.2,0.5
		c-2.3,0.7-4.5,1.9-7.1,3.7c-0.1,0.1-0.2,0.1-0.4,0.2c-0.1,0.1-0.2,0.1-0.3,0.1c-0.2,0-0.4-0.1-0.5-0.2c-0.3-0.2-0.4-0.6-0.4-0.9
		c0,0,0-0.2,0-0.2c0.4-1.8,0.5-3.8,0.4-5.9c-0.1-2.2-0.4-4.3-1-6.3c-1-3.7-2.8-7.5-5.3-11.5c-2.7-4.3-5.9-8.3-9.6-12l-0.5-0.5
		c-1.9-1.9-3.6-3.7-6-4.6h-0.5l-0.2,0.1c-0.2,0.1-0.4,0.2-0.6,0.3c-1.1,0.6-2.1,1.4-2.9,2.1c-4.9,4.5-9.1,9.5-12.5,14.9
		c-2.3,3.7-3.9,7.3-5,10.8c-0.7,2.3-1.1,4.7-1.1,7.1c0,1.5,0,2.9,0.2,4.2c0.1,0.3,0.1,0.7,0.2,1l0.1,0.6c0.1,0.3-0.1,0.7-0.4,0.9
		c-0.1,0.1-0.3,0.2-0.5,0.2c-0.2,0-0.3,0-0.4-0.1l-0.5-0.3c-2.8-1.9-5.2-3.1-7.7-3.8c-0.5-0.1-0.9-0.2-1.3-0.2h-0.2
		c-0.6,0-0.8,0.1-1,0.9c-0.2,0.6-0.2,1.3-0.3,2l-0.1,0.8c0,0.2,0,0.4-0.1,0.6l0,0.2l0,2.3l0,0.2c0,0.2,0.1,0.3,0.1,0.5
		c0.1,3.3,0.8,6.7,2,10.3c0.9,2.7,1.8,4.7,2.8,6.4c2.4,4,5.7,7.4,9.9,10c3.9,2.5,8.2,4.2,12.9,5.1c1.1,0.2,2.3,0.3,3.4,0.4
		c1.8,4,4.5,7.5,8.5,9.7c3.1,1.7,6.5,2.4,9.9,2.5l0.4-0.8c-1.8-0.4-3.7-0.8-5.2-1.7c-3.3-1.9-5.6-5.7-7-9.7c4.9-0.4,9.6-1.7,14-3.9
		c5.3-2.7,9.4-6.5,12.4-11.3c1.5-2.4,2.6-5,3.2-7.6l0.2-0.6c0.4-1.6,0.8-3.2,1.1-4.8c0.1-0.8,0.2-1.5,0.3-2.4c0-0.4,0.1-0.8,0.1-1.2
		c0-0.1,0-0.3,0.1-0.4l0,0l0-3.2L1272.7,338.7z"/>
</g>
</svg>
