<?xml version="1.0" encoding="utf-8"?>
<!-- Generator: Adobe Illustrator 18.1.1, SVG Export Plug-In . SVG Version: 6.00 Build 0)  -->
<svg version="1.1" id="Layer_1" xmlns="http://www.w3.org/2000/svg" xmlns:xlink="http://www.w3.org/1999/xlink" x="0px" y="0px"
	 viewBox="431.4 253.9 208 313.9" enable-background="new 431.4 253.9 208 313.9" xml:space="preserve">
<linearGradient id="SVGID_1_" gradientUnits="userSpaceOnUse" x1="115" y1="400.08" x2="956.891" y2="400.08" gradientTransform="matrix(1 0 0 -1 0 797.4399)">
	<stop  offset="0" style="stop-color:#94C125"/>
	<stop  offset="0.3265" style="stop-color:#84B92F"/>
	<stop  offset="0.9388" style="stop-color:#55A740"/>
	<stop  offset="1" style="stop-color:#4FA542"/>
</linearGradient>
<rect x="115" y="99.7" fill="url(#SVGID_1_)" width="841.9" height="595.3"/>
<g>
	<path fill="#FFFFFF" d="M517.9,536.5v15.8c0,7.1-5,11.8-11.5,11.8c-6.6,0-11.5-4.7-11.5-11.8v-15.8h4.9v15.8c0,4.2,3,7.1,6.6,7.1
		c3.5,0,6.6-2.9,6.6-7.1v-15.8H517.9z"/>
	<path fill="#FFFFFF" d="M524.4,527.6c1.9,0,3,1.5,3,3c0,1.5-1.1,3-3,3c-1.9,0-3-1.5-3-3C521.5,529.1,522.5,527.6,524.4,527.6z
		 M522,563.6v-27h4.9v27H522z"/>
	<path fill="#FFFFFF" d="M531,563.7V548c0-7.1,4.9-11.8,11.5-11.8c6.6,0,11.5,4.7,11.5,11.8v15.8h-5V548c0-4.2-3-7.1-6.6-7.1
		s-6.6,2.9-6.6,7.1v15.8H531z"/>
	<path fill="#FFFFFF" d="M572.2,536.2c7.5,0,14,5.7,14,14.1c0,8.3-6.5,14.1-14,14.1c-7.5,0-14-5.7-14-14.1
		C558.2,541.9,564.7,536.2,572.2,536.2z M572.2,559.6c5.1,0,8.8-3.8,8.8-9.3c0-5.5-3.7-9.3-8.8-9.3c-5.1,0-8.8,3.8-8.8,9.3
		C563.3,555.8,567,559.6,572.2,559.6z"/>
	<path fill="#FFFFFF" d="M604.9,541.4h-9.7v14.2c0,2.5,1.2,3.4,3.7,3.4h6v4.7h-6.6c-5.1,0-8-3.4-8-8.7v-25h4.9v6.7h9.7L604.9,541.4
		L604.9,541.4z"/>
	<path fill="#FFFFFF" d="M493.2,558.5l-0.5,0.1c0,0.5,0,1-0.1,1.5c-0.6,2.4-3,3.5-5.3,2.9c-2.9-0.7-4.7-3.1-6.2-5.6l-1.8-3.4
		c-2.2-4.2-5.4-7.5-10.1-8.7c-2.5-0.6-5.2-0.4-7.7,0.1l-0.2,0.6c1.4-0.1,2.8-0.1,4.1,0.2c3.9,1,7,5.4,8.7,8.9l1.5,3
		c1.7,3.7,4,8.3,8.2,9.4c4.3,1.1,8.1-1.2,9.2-5.5C493.3,560.8,493.3,559.7,493.2,558.5z"/>
	<g>
		<path fill="#FFFFFF" d="M611.8,550.5c0.1,4.5,3.2,8.7,8.3,8.7c4.1,0,6.3-2,8.3-5.1l4.5,2.4c-2.6,4.5-7.4,7.2-12.8,7.2
			c-8.4,0-13.6-6.1-13.6-13.8c0-8.1,4.5-14.1,13.5-14.1c8.8,0,12.9,6.2,12.9,14v0.8L611.8,550.5L611.8,550.5z M627.5,546.7
			c-0.6-3.9-3.4-6.6-7.6-6.6c-4.1,0-7.2,2.8-7.9,6.6H627.5z"/>
	</g>
	<path fill="#FFFFFF" d="M469,563.6c-11.9,0-21.6-9.7-21.6-21.6c0-11.9,9.7-21.6,21.6-21.6s21.6,9.7,21.6,21.6
		C490.7,553.9,481,563.6,469,563.6z M469,526.1c-8.8,0-15.9,7.1-15.9,15.9s7.1,15.9,15.9,15.9c8.8,0,15.9-7.1,15.9-15.9
		C484.9,533.2,477.8,526.1,469,526.1z"/>
</g>
<g>
	<line fill="none" stroke="#4FA542" stroke-miterlimit="10" x1="577.2" y1="361.4" x2="577.2" y2="420.2"/>
	<g>
		
			<image overflow="visible" opacity="0.5" enable-background="new    " width="650" height="792" xlink:href="7393ECB1E35F63CA.png"  transform="matrix(0.2389 0 0 0.2385 431.3521 292.4915)">
		</image>
		<g>
			<path fill="#FFFFFF" d="M580.9,467.1c0,1.6-1.3,2.8-2.8,2.8H445.5c-1.6,0-2.8-1.3-2.8-2.8V301c0-1.6,1.3-2.8,2.8-2.8H578
				c1.6,0,2.8,1.3,2.8,2.8V467.1L580.9,467.1z"/>
		</g>
	</g>
	<path fill="#4FA542" d="M496.7,418.6c-2-1.4-4.6-0.9-6,1.1l-18,26l-7.8-8.4c-1.6-1.8-4.3-1.8-6.1-0.2c-1.7,1.6-1.8,4.3-0.2,6.1
		l11.4,12.3c0.1,0.1,0.3,0.2,0.4,0.3c0.1,0.1,0.2,0.2,0.3,0.3c0.1,0.1,0.3,0.2,0.5,0.2c0.1,0.1,0.3,0.1,0.4,0.2
		c0.5,0.2,0.9,0.3,1.4,0.3h0h0c0,0,0,0,0,0c0.5,0,1-0.1,1.4-0.2c0.1,0,0.2-0.1,0.3-0.1c0.5-0.2,0.9-0.4,1.3-0.8c0,0,0,0,0.1,0
		c0,0,0.1-0.1,0.1-0.1c0.2-0.2,0.4-0.4,0.5-0.6l21.1-30.3C499.2,422.6,498.7,420,496.7,418.6z"/>
	<path fill="#4FA542" d="M523.6,360.1h-58.5c-1.6,0-2.9-1.3-2.9-2.9c0-1.6,1.3-2.9,2.9-2.9h58.5c1.6,0,2.9,1.3,2.9,2.9
		C526.5,358.8,525.2,360.1,523.6,360.1z"/>
	<path fill="#4FA542" d="M523.7,344.7h-58.5c-1.6,0-2.9-1.3-2.9-2.9c0-1.6,1.3-2.9,2.9-2.9h58.5c1.6,0,2.9,1.3,2.9,2.9
		C526.6,343.4,525.3,344.7,523.7,344.7z"/>
	<path fill="#4FA542" d="M523.6,329h-58.5c-1.6,0-2.9-1.3-2.9-2.9c0-1.6,1.3-2.9,2.9-2.9h58.5c1.6,0,2.9,1.3,2.9,2.9
		C526.5,327.7,525.2,329,523.6,329z"/>
	<path fill="#4FA542" d="M523.5,406.2H465c-1.6,0-2.9-1.3-2.9-2.9c0-1.6,1.3-2.9,2.9-2.9h58.5c1.6,0,2.9,1.3,2.9,2.9
		C526.4,404.9,525.1,406.2,523.5,406.2z"/>
	<path fill="#4FA542" d="M523.6,375.5h-58.5c-1.6,0-2.9-1.3-2.9-2.9c0-1.6,1.3-2.9,2.9-2.9h58.5c1.6,0,2.9,1.3,2.9,2.9
		C526.5,374.2,525.2,375.5,523.6,375.5z"/>
	<path fill="#4FA542" d="M523.7,390.8h-58.5c-1.6,0-2.9-1.3-2.9-2.9c0-1.6,1.3-2.9,2.9-2.9h58.5c1.6,0,2.9,1.3,2.9,2.9
		C526.6,389.5,525.3,390.8,523.7,390.8z"/>
	<g>
		
			<image overflow="visible" opacity="0.5" enable-background="new    " width="563" height="1108" xlink:href="7393ECB1E35F63CE.png"  transform="matrix(0.2383 0 0 0.2391 505.1719 253.9495)">
		</image>
		<g>
			
				<linearGradient id="SVGID_2_" gradientUnits="userSpaceOnUse" x1="516.509" y1="413.8884" x2="633.566" y2="413.8884" gradientTransform="matrix(1 0 0 -1 0 797.4399)">
				<stop  offset="0" style="stop-color:#FFFFFF"/>
				<stop  offset="0.4306" style="stop-color:#FEFEFE"/>
				<stop  offset="0.5858" style="stop-color:#FAFCF9"/>
				<stop  offset="0.6963" style="stop-color:#F3F7F0"/>
				<stop  offset="0.7857" style="stop-color:#E9F1E3"/>
				<stop  offset="0.8622" style="stop-color:#DBE8D1"/>
				<stop  offset="0.9289" style="stop-color:#CBDEBB"/>
				<stop  offset="0.9745" style="stop-color:#BBD4A8"/>
			</linearGradient>
			<path fill="url(#SVGID_2_)" d="M633.6,463.2c0,1.6-1.2,3.3-2.7,3.8l-111.7,40.3c-1.5,0.5-2.7-0.3-2.7-1.9V261.7
				c0-1.6,1.2-2.4,2.7-1.9l111.7,39.7c1.5,0.5,2.7,2.2,2.7,3.8L633.6,463.2L633.6,463.2z"/>
		</g>
	</g>
	<path fill="#4FA542" d="M611.7,379.8c0-0.3-0.1-0.6-0.1-1c-0.1-0.8-0.3-1.5-0.5-2.2c0-0.1-0.1-0.4-0.8-0.4c-0.7,0-1.3,0.2-2.2,0.5
		c-2.3,0.7-4.5,1.9-7.1,3.7c-0.1,0.1-0.2,0.1-0.4,0.2c-0.1,0.1-0.2,0.1-0.3,0.1c-0.2,0-0.4-0.1-0.5-0.2c-0.3-0.2-0.4-0.6-0.4-0.9
		c0,0,0-0.2,0-0.2c0.4-1.8,0.5-3.8,0.4-5.9c-0.1-2.2-0.4-4.3-1-6.3c-1-3.7-2.8-7.5-5.3-11.5c-2.7-4.3-5.9-8.3-9.6-12l-0.5-0.5
		c-1.9-1.9-3.6-3.7-6-4.6H577l-0.2,0.1c-0.2,0.1-0.4,0.2-0.6,0.3c-1.1,0.6-2.1,1.4-2.9,2.1c-4.9,4.5-9.1,9.5-12.5,14.9
		c-2.3,3.7-3.9,7.3-5,10.8c-0.7,2.3-1.1,4.7-1.1,7.1c0,1.5,0,2.9,0.2,4.2c0.1,0.3,0.1,0.7,0.2,1l0.1,0.6c0.1,0.3-0.1,0.7-0.4,0.9
		c-0.1,0.1-0.3,0.2-0.5,0.2c-0.2,0-0.3,0-0.4-0.1l-0.5-0.3c-2.8-1.9-5.2-3.1-7.7-3.8c-0.5-0.1-0.9-0.2-1.3-0.2h-0.2
		c-0.6,0-0.8,0.1-1,0.9c-0.2,0.6-0.2,1.3-0.3,2l-0.1,0.8c0,0.2,0,0.4-0.1,0.6l0,0.2l0,2.3l0,0.2c0,0.2,0.1,0.3,0.1,0.5
		c0.1,3.3,0.8,6.7,2,10.3c0.9,2.7,1.8,4.7,2.8,6.4c2.4,4,5.7,7.4,9.9,10c3.9,2.5,8.2,4.2,12.9,5.1c1.1,0.2,2.3,0.3,3.5,0.4
		c1.8,4,4.5,7.5,8.5,9.7c3.1,1.7,6.5,2.4,9.9,2.5l0.4-0.8c-1.8-0.4-3.7-0.8-5.2-1.7c-3.3-1.9-5.6-5.7-7-9.7c4.9-0.4,9.6-1.7,14-3.9
		c5.3-2.7,9.4-6.5,12.4-11.3c1.5-2.4,2.6-5,3.2-7.6l0.2-0.6c0.4-1.6,0.8-3.2,1.1-4.8c0.1-0.8,0.2-1.5,0.3-2.4c0-0.4,0.1-0.8,0.1-1.2
		c0-0.1,0-0.3,0.1-0.4l0,0l0-3.2L611.7,379.8z"/>
</g>
</svg>
