<?xml version="1.0" encoding="utf-8"?>
<!-- Generator: Adobe Illustrator 18.1.1, SVG Export Plug-In . SVG Version: 6.00 Build 0)  -->
<svg version="1.1" id="print" xmlns="http://www.w3.org/2000/svg" xmlns:xlink="http://www.w3.org/1999/xlink" x="0px" y="0px"
	 viewBox="0 128.2 612 535.5" enable-background="new 0 128.2 612 535.5" xml:space="preserve">
<path fill="#FFFFFF" d="M153,128.2h306v76.5H153V128.2z"/>
<path fill="#FFFFFF" d="M573.8,243H38.2C17.2,243,0,260.2,0,281.2v191.2c0,21,17.2,38.2,38.2,38.2H153v153h306v-153h114.8
	c21,0,38.2-17.2,38.2-38.2V281.2C612,260.2,594.8,243,573.8,243z M76.5,357.8c-21.1,0-38.2-17.1-38.2-38.2s17.1-38.2,38.2-38.2
	s38.2,17.1,38.2,38.2S97.6,357.8,76.5,357.8z M420.8,625.5H191.2V434.2h229.5V625.5z"/>
</svg>
