<?xml version="1.0" encoding="utf-8"?>
<!-- Generator: Adobe Illustrator 18.1.1, SVG Export Plug-In . SVG Version: 6.00 Build 0)  -->
<svg version="1.1" id="Layer_1" xmlns="http://www.w3.org/2000/svg" xmlns:xlink="http://www.w3.org/1999/xlink" x="0px" y="0px"
	 viewBox="0.1 214.6 611.8 577.4" enable-background="new 0.1 214.6 611.8 577.4" xml:space="preserve">
<g>
	<path fill="#231F20" d="M572.2,593.5c-25.6,65.5-75.8,118-142.2,148.6c-139.9,63.4-309,8.7-377.7-122.4
		c-67.6-131.1-9.3-289.5,130.6-354c132.9-60.1,291.5-14.2,366.1,102.7l-102.6-7.6l-3.5,22.9l148.1,14.2v-1.1h1.2l19.8-135.5
		l-24.5-2.2l-14,97.2C493,228.6,318.1,177.2,173.5,243.9C20.8,313.8-43.3,486.4,31.3,629.5c74.6,143.1,258.8,203.2,411.6,133.3
		c73.5-33.9,128.2-90.7,155.1-161.7L572.2,593.5z"/>
</g>
</svg>
