<?xml version="1.0" encoding="utf-8"?>
<!-- Generator: Adobe Illustrator 18.1.1, SVG Export Plug-In . SVG Version: 6.00 Build 0)  -->
<svg version="1.1" id="strike" xmlns="http://www.w3.org/2000/svg" xmlns:xlink="http://www.w3.org/1999/xlink" x="0px" y="0px"
	 viewBox="0 128.2 612 535.5" enable-background="new 0 128.2 612 535.5" xml:space="preserve">
<path fill="#FFFFFF" d="M612,396v38.2H471.8c16.4,23,25.4,49.4,25.4,76.5c0,42.4-21.9,83.1-60.1,111.7
	c-35.5,26.6-82,41.3-131.1,41.3s-95.7-14.6-131.1-41.3c-38.2-28.6-60.1-69.4-60.1-111.7h76.5c0,41.5,52.5,76.5,114.8,76.5
	s114.8-35,114.8-76.5s-52.5-76.5-114.8-76.5H0V396h179c-1.4-1-2.8-2-4.2-3c-38.2-28.6-60.1-69.4-60.1-111.7s21.9-83.1,60.1-111.7
	c35.5-26.6,82-41.3,131.1-41.3s95.7,14.6,131.1,41.3c38.2,28.6,60.1,69.4,60.1,111.7h-76.5c0-41.5-52.5-76.5-114.8-76.5
	s-114.8,35-114.8,76.5s52.5,76.5,114.8,76.5c47.2,0,92.1,13.6,127,38.2H612z"/>
</svg>
