<?xml version="1.0" encoding="utf-8"?>
<!-- Generator: Adobe Illustrator 16.0.0, SVG Export Plug-In . SVG Version: 6.00 Build 0)  -->
<!DOCTYPE svg PUBLIC "-//W3C//DTD SVG 1.1//EN" "http://www.w3.org/Graphics/SVG/1.1/DTD/svg11.dtd">
<svg version="1.1" id="Layer_1" xmlns="http://www.w3.org/2000/svg" xmlns:xlink="http://www.w3.org/1999/xlink" x="0px" y="0px"
	 width="443.75px" height="99.667px" viewBox="0 0 443.75 99.667" enable-background="new 0 0 443.75 99.667" xml:space="preserve">
<path fill-rule="evenodd" clip-rule="evenodd" fill="#000" d="M69.66,87.376c0.365,0.736-6.332,3.61-7.22,4.022
	c-7.149,3.324-14.716,4.406-22.483,3.644C28.634,93.928,19,89.246,11.569,80.496C2.875,70.26-0.386,58.262,1.055,45.083
	c1.413-12.908,7.238-23.562,17.816-31.327c6.818-5,14.58-7.557,23.016-7.879c16.527-0.632,29.653,5.698,38.674,19.685
	c6.062,9.398,7.933,19.88,6.653,30.927c-1.216,10.51-5.601,19.523-13.105,26.985C72.754,84.824,71.237,86.002,69.66,87.376z
	 M66.506,80.652c8.056-6.933,12.077-15.916,13.033-26.32c0.534-5.829-0.031-11.604-1.93-17.209
	c-2.495-7.381-6.629-13.579-13.023-18.138c-6.917-4.935-14.685-6.677-23.087-6.076c-11.986,0.856-21.067,6.468-27.271,16.673
	c-4.855,7.982-6.354,16.76-5.32,25.948c1.03,9.188,4.543,17.411,11.493,23.598c11.337,10.099,24.353,11.455,38.337,6.296
	C59.983,84.96,66.395,80.747,66.506,80.652z"/>
<path fill-rule="evenodd" clip-rule="evenodd" fill="#000" d="M206.82,22.074c0,0.601,0,1.198,0,1.799
	c0,22.212,0.012,44.424-0.036,66.633c-0.005,1.158-0.301,2.422-0.845,3.427c-0.788,1.47-2.292,1.712-3.85,1.363
	c-1.402-0.317-2.521-1.64-2.675-3.136c-0.063-0.604-0.063-1.21-0.063-1.816c-0.002-26.004-0.002-52.014,0-78.019
	c0-0.557,0-1.116,0.041-1.669c0.129-1.782,0.969-2.895,2.529-3.391c1.739-0.55,3.112-0.17,4.282,1.354
	c2.709,3.528,5.365,7.091,8.045,10.642c15.223,20.156,30.446,40.312,45.664,60.472c0.206,0.271,0.376,0.579,0.562,0.867
	c0.143-0.065,0.282-0.132,0.428-0.197c0.029-0.62,0.091-1.241,0.093-1.858c0.005-21.961,0.002-43.922,0.014-65.878
	c0-0.858,0.034-1.724,0.17-2.567c0.308-1.902,1.793-3.105,3.719-3.092c1.705,0.009,3.12,1.246,3.41,3.051
	c0.136,0.842,0.213,1.705,0.213,2.559c0.014,26.062,0.012,52.117,0.012,78.175c0,3.055-1.359,4.62-3.954,4.638
	c-1.456,0.014-2.311-0.883-3.087-1.906c-3.581-4.707-7.147-9.42-10.719-14.128c-13.744-18.11-27.484-36.221-41.229-54.331
	c-0.783-1.033-1.574-2.068-2.362-3.104C207.061,21.998,206.94,22.034,206.82,22.074z"/>
<path fill-rule="evenodd" clip-rule="evenodd" fill="#000" d="M394.186,68.977c-0.158,2.953,0.659,5.548,1.776,8.032
	c3.836,8.509,11.912,12.58,20.857,12.25c6.567-0.238,11.996-2.862,16.292-7.834c0.23-0.27,0.45-0.548,0.704-0.792
	c1.399-1.359,3.327-1.516,4.665-0.393c1.286,1.083,1.646,3.053,0.487,4.529c-1.363,1.732-2.858,3.432-4.562,4.822
	c-5.192,4.234-11.253,6.232-17.927,6.325c-10.812,0.151-19.707-3.741-25.659-13.002c-9.394-14.614-4.794-35.743,11.713-43.591
	c12.032-5.72,27.192-2.803,34.946,9.304c3.305,5.159,4.778,10.868,4.679,16.979c-0.029,1.757-1.118,2.915-2.86,3.175
	c-0.647,0.1-1.311,0.102-1.965,0.104c-13.713,0.005-27.421,0.002-41.132,0.007C395.561,68.893,394.92,68.944,394.186,68.977z
	 M434.828,62.164c-0.668-9.893-8.207-19.154-20.009-19.03c-12.891,0.132-19.975,10.61-20.316,19.03
	C407.912,62.164,421.316,62.164,434.828,62.164z"/>
<path fill-rule="evenodd" clip-rule="evenodd" fill="#000" d="M285.604,66.403c-0.273-16.579,12.334-29.581,28.95-29.853
	c17.025-0.274,29.83,12.149,30.14,29.255c0.304,16.534-11.907,29.979-29.238,30.163C298.576,96.15,285.885,83.667,285.604,66.403z
	 M336.874,66.619c-0.091-1.533-0.07-2.757-0.256-3.952c-0.218-1.391-0.521-2.783-0.942-4.126
	c-4.608-14.693-22.572-20.041-34.255-10.217c-7.116,5.983-9.784,16.276-6.704,25.858c4.024,12.515,18.002,18.608,29.797,12.8
	C333.001,82.802,336.55,75.476,336.874,66.619z"/>
<path fill-rule="evenodd" clip-rule="evenodd" fill="#000" d="M149.425,85.488c-1.533,1.687-2.692,3.206-4.093,4.468
	c-5.314,4.771-11.708,6.3-18.672,5.917c-7.89-0.435-14.146-3.807-18.426-10.523c-2.581-4.054-3.92-8.567-3.985-13.341
	c-0.136-10.167-0.098-20.335-0.115-30.501c-0.005-1.793,0.584-3.295,2.353-4.056c1.549-0.671,2.992-0.378,4.235,0.704
	c1.231,1.073,1.272,2.579,1.272,4.059c0.009,8.853-0.091,17.707,0.059,26.555c0.05,2.951,0.398,5.977,1.178,8.812
	c1.545,5.623,5.424,9.072,11.088,10.465c5.406,1.329,10.669,0.992,15.554-1.805c6.248-3.58,9.218-9.328,9.433-16.29
	c0.29-9.349,0.098-18.716,0.122-28.073c0.005-2.62,0.972-4.064,3.053-4.615c2.306-0.611,4.555,0.949,4.771,3.329
	c0.055,0.604,0.057,1.214,0.057,1.821c0.003,15.884,0.003,31.767-0.002,47.65c0,0.705,0.007,1.423-0.088,2.12
	c-0.24,1.762-1.726,3.098-3.509,3.225c-1.813,0.127-3.491-0.915-3.929-2.641c-0.27-1.064-0.297-2.194-0.345-3.297
	C149.379,88.239,149.425,87.005,149.425,85.488z"/>
<path fill-rule="evenodd" clip-rule="evenodd" fill="#000" d="M369.664,68.745c0,7.181,0.016,14.367-0.019,21.548
	c-0.004,0.992-0.059,2.062-0.425,2.961c-0.664,1.625-2.388,2.391-4.131,2.104c-1.674-0.283-2.838-1.465-3.101-3.257
	c-0.118-0.792-0.149-1.61-0.149-2.414c-0.007-14.367-0.029-28.734,0.027-43.099c0.004-1.54-0.405-1.996-1.95-1.959
	c-3.331,0.081-6.679,0.098-10.003-0.134c-2.543-0.179-3.769-3.228-2.063-5.08c0.693-0.747,2-1.233,3.056-1.288
	c3.127-0.168,6.271-0.111,9.407-0.039c1.211,0.027,1.554-0.392,1.544-1.571c-0.057-5.109-0.043-10.218-0.004-15.329
	c0.004-0.947,0.074-1.953,0.396-2.827c0.608-1.655,2.418-2.448,4.393-2.133c1.486,0.242,2.856,1.592,2.901,3.229
	c0.115,4.142,0.093,8.293,0.12,12.438c0.012,1.566,0.059,3.139-0.019,4.703c-0.052,1.133,0.356,1.502,1.481,1.486
	c3.743-0.05,7.485-0.029,11.229-0.01c1.549,0.008,2.77,0.682,3.374,2.127c0.508,1.209,0.358,2.566-0.677,3.331
	c-0.858,0.639-2.081,1.04-3.159,1.083c-3.386,0.133-6.776,0.05-10.169,0.052c-2.056,0.003-2.059,0.005-2.059,2.07
	C369.664,54.074,369.664,61.407,369.664,68.745z"/>
<path fill-rule="evenodd" clip-rule="evenodd" fill="#000" d="M182.28,66.141c0,7.99,0.01,15.979-0.014,23.967
	c-0.002,0.798-0.09,1.615-0.273,2.392c-0.462,1.938-2.057,3.062-4.011,2.908c-1.825-0.143-3.293-1.549-3.521-3.399
	c-0.063-0.498-0.073-1.008-0.073-1.511c-0.002-16.181,0.005-32.357-0.013-48.538c-0.003-1.887,0.342-3.543,2.21-4.441
	c2.828-1.356,5.666,0.639,5.687,4.052c0.031,7.179,0.009,14.36,0.009,21.539C182.28,64.116,182.28,65.131,182.28,66.141z"/>
<path fill-rule="evenodd" clip-rule="evenodd" fill="#000" d="M178.027,15.836c2.646,0.004,4.761,2.095,4.774,4.713
	c0.014,2.61-2.201,4.823-4.858,4.848c-2.581,0.032-4.749-2.232-4.726-4.937C173.24,17.819,175.31,15.831,178.027,15.836z"/>
<path fill="#000" d="M94.781,80.434l-0.833,0.098c0,0.814-0.005,1.617-0.2,2.373c-0.96,3.791-4.735,5.566-8.442,4.629
	c-4.563-1.158-7.537-4.941-9.785-8.846l-2.845-5.473c-3.472-6.658-8.583-11.977-15.988-13.855c-4.034-1.029-8.248-0.703-12.266,0.17
	l-0.261,1.008c2.179-0.137,4.498-0.195,6.581,0.336c6.271,1.602,11.163,8.598,13.771,14.207l2.319,4.83
	c2.658,5.832,6.336,13.227,13.081,14.938c6.839,1.744,12.92-1.975,14.661-8.799C95.058,84.146,95.085,82.432,94.781,80.434z"/>
</svg>
