<svg version="1.1" id="Layer_1" xmlns="http://www.w3.org/2000/svg" xmlns:xlink="http://www.w3.org/1999/xlink" x="0px" y="0px"
	 width="210px" height="50px" viewBox="150 250 550 100" enable-background="new 150 250 550 100" xml:space="preserve">
<g>
	<path fill="#FFFFFF" d="M351.104,303.687v28.349c0,12.76-8.91,21.245-20.749,21.245c-11.846,0-20.745-8.485-20.745-21.245v-28.349
		h8.899v28.349c0,7.487,5.469,12.76,11.846,12.76s11.839-5.272,11.839-12.76v-28.349H351.104z"/>
	<path fill="#FFFFFF" d="M362.805,287.66c3.444,0,5.366,2.643,5.366,5.374c0,2.738-1.922,5.369-5.366,5.369
		c-3.442,0-5.365-2.631-5.365-5.369C357.439,290.303,359.362,287.66,362.805,287.66z M358.352,352.451v-48.583h8.905v48.583H358.352
		z"/>
	<path fill="#FFFFFF" d="M374.659,352.588v-28.347c0-12.738,8.906-21.256,20.753-21.256c11.838,0,20.746,8.518,20.746,21.256v28.347
		h-8.908v-28.347c0-7.484-5.468-12.738-11.838-12.738c-6.372,0-11.847,5.254-11.847,12.738v28.347H374.659z"/>
	<path fill="#FFFFFF" d="M448.675,303.075c13.457,0,25.201,10.331,25.201,25.317c0,14.972-11.744,25.297-25.201,25.297
		c-13.459,0-25.205-10.325-25.205-25.297C423.47,313.406,435.216,303.075,448.675,303.075z M448.675,345.202
		c9.206,0,15.895-6.9,15.895-16.81c0-9.929-6.688-16.8-15.895-16.8s-15.892,6.871-15.892,16.8
		C432.783,338.302,439.469,345.202,448.675,345.202z"/>
	<path fill="#FFFFFF" d="M507.564,312.367h-17.42v25.507c0,4.557,2.13,6.077,6.681,6.077h10.739v8.5H495.62
		c-9.117,0-14.382-6.073-14.382-15.686v-45.041h8.906v12.143h17.42V312.367z"/>
	<path fill="#FFFFFF" d="M306.513,343.19l-0.941,0.114c0,0.919-0.006,1.829-0.227,2.687c-1.091,4.302-5.371,6.309-9.566,5.245
		c-5.167-1.311-8.541-5.6-11.085-10.024l-3.229-6.198c-3.937-7.544-9.727-13.571-18.117-15.703
		c-4.578-1.165-9.347-0.789-13.903,0.197l-0.292,1.142c2.467-0.152,5.099-0.22,7.459,0.385c7.105,1.807,12.648,9.742,15.606,16.095
		l2.621,5.475c3.019,6.61,7.186,14.985,14.825,16.921c7.748,1.979,14.644-2.235,16.61-9.97
		C306.823,347.398,306.857,345.457,306.513,343.19z"/>
	<g>
		<path fill="#FFFFFF" d="M519.962,328.839c0.105,8.067,5.841,15.634,14.972,15.634c7.339,0,11.261-3.544,14.879-9.175l8.069,4.328
			c-4.68,8.174-13.382,12.918-23.054,12.918c-15.18,0-24.423-10.902-24.423-24.825c0-14.521,8.175-25.415,24.209-25.415
			c15.836,0,23.268,11.089,23.268,25.12v1.415H519.962z M548.326,321.977c-1.169-7.073-6.054-11.809-13.712-11.809
			c-7.43,0-12.957,5.052-14.129,11.809H548.326z"/>
	</g>
	<path fill="#FFFFFF" d="M263.093,352.41c-21.453,0-38.907-17.458-38.907-38.913c0-21.458,17.454-38.916,38.907-38.916
		c21.454,0,38.914,17.458,38.914,38.916C302.007,334.952,284.546,352.41,263.093,352.41z M263.093,284.863
		c-15.779,0-28.623,12.851-28.623,28.634c0,15.782,12.844,28.619,28.623,28.619c15.783,0,28.624-12.837,28.624-28.619
		C291.717,297.714,278.876,284.863,263.093,284.863z"/>
</g>
</svg>