<?xml version="1.0" encoding="utf-8"?>
<!-- Generator: Adobe Illustrator 18.1.1, SVG Export Plug-In . SVG Version: 6.00 Build 0)  -->
<svg version="1.1" id="Layer_1" xmlns="http://www.w3.org/2000/svg" xmlns:xlink="http://www.w3.org/1999/xlink" x="0px" y="0px"
	 viewBox="-21.7 637.3 127.4 32.6" enable-background="new -21.7 637.3 127.4 32.6" xml:space="preserve">
<g>
	<path fill="#4FA542" d="M26.8,648.4v10.8c0,4.9-3.4,8.1-7.9,8.1c-4.5,0-7.9-3.2-7.9-8.1v-10.8h3.4v10.8c0,2.9,2.1,4.9,4.5,4.9
		s4.5-2,4.5-4.9v-10.8H26.8z"/>
	<path fill="#4FA542" d="M31.3,642.3c1.3,0,2,1,2,2.1c0,1-0.7,2-2,2c-1.3,0-2-1-2-2C29.2,643.3,29.9,642.3,31.3,642.3z M29.6,667
		v-18.5H33V667H29.6z"/>
	<path fill="#4FA542" d="M35.8,667.1v-10.8c0-4.9,3.4-8.1,7.9-8.1c4.5,0,7.9,3.3,7.9,8.1v10.8h-3.4v-10.8c0-2.9-2.1-4.9-4.5-4.9
		c-2.4,0-4.5,2-4.5,4.9v10.8H35.8z"/>
	<path fill="#4FA542" d="M64,648.2c5.1,0,9.6,3.9,9.6,9.7c0,5.7-4.5,9.7-9.6,9.7c-5.1,0-9.6-3.9-9.6-9.7
		C54.4,652.1,58.9,648.2,64,648.2z M64,664.3c3.5,0,6.1-2.6,6.1-6.4c0-3.8-2.6-6.4-6.1-6.4c-3.5,0-6.1,2.6-6.1,6.4
		C58,661.6,60.5,664.3,64,664.3z"/>
	<path fill="#4FA542" d="M86.5,651.7h-6.7v9.7c0,1.7,0.8,2.3,2.6,2.3h4.1v3.2H82c-3.5,0-5.5-2.3-5.5-6v-17.2h3.4v4.6h6.7L86.5,651.7
		L86.5,651.7z"/>
	<path fill="#4FA542" d="M9.8,663.5l-0.4,0c0,0.4,0,0.7-0.1,1c-0.4,1.6-2.1,2.4-3.7,2c-2-0.5-3.3-2.1-4.2-3.8l-1.2-2.4
		c-1.5-2.9-3.7-5.2-6.9-6c-1.7-0.4-3.6-0.3-5.3,0.1l-0.1,0.4c0.9-0.1,1.9-0.1,2.8,0.1c2.7,0.7,4.8,3.7,6,6.1l1,2.1
		c1.2,2.5,2.7,5.7,5.7,6.5c3,0.8,5.6-0.9,6.3-3.8C9.9,665.1,9.9,664.4,9.8,663.5z"/>
	<g>
		<path fill="#4FA542" d="M91.3,658c0,3.1,2.2,6,5.7,6c2.8,0,4.3-1.4,5.7-3.5l3.1,1.7c-1.8,3.1-5.1,4.9-8.8,4.9
			c-5.8,0-9.3-4.2-9.3-9.5c0-5.5,3.1-9.7,9.2-9.7c6,0,8.9,4.2,8.9,9.6v0.5H91.3z M102.1,655.4c-0.4-2.7-2.3-4.5-5.2-4.5
			c-2.8,0-4.9,1.9-5.4,4.5H102.1z"/>
	</g>
	<path fill="#4FA542" d="M-6.8,667c-8.2,0-14.9-6.7-14.9-14.9c0-8.2,6.7-14.9,14.9-14.9C1.4,637.3,8,644,8,652.2
		C8,660.3,1.4,667-6.8,667z M-6.8,641.2c-6,0-10.9,4.9-10.9,10.9c0,6,4.9,10.9,10.9,10.9c6,0,10.9-4.9,10.9-10.9
		C4.1,646.1-0.8,641.2-6.8,641.2z"/>
</g>
</svg>
