<?xml version="1.0" encoding="utf-8"?>
<!-- Generator: Adobe Illustrator 18.1.1, SVG Export Plug-In . SVG Version: 6.00 Build 0)  -->
<svg version="1.1" id="Layer_1" xmlns="http://www.w3.org/2000/svg" xmlns:xlink="http://www.w3.org/1999/xlink" x="0px" y="0px"
	 viewBox="0.1 214.6 611.8 577.4" enable-background="new 0.1 214.6 611.8 577.4" xml:space="preserve">
<g>
	<path fill="#231F20" d="M14.1,601.1c26.8,71,81.6,127.8,155.1,161.7c152.7,69.9,336.9,9.8,411.6-133.3
		c74.6-143.1,10.5-315.7-142.2-385.6C293.9,177.2,119,228.6,38.6,356.4l-14-97.2l-24.5,2.2l19.8,135.5h1.2v1.1l148.1-14.2l-3.5-22.9
		l-102.6,7.6c74.6-116.9,233.2-162.8,366.1-102.7c139.9,64.5,198.2,222.9,130.6,354C491,750.8,321.9,805.4,182,742.1
		c-66.5-30.6-116.6-83-142.2-148.6L14.1,601.1z"/>
</g>
</svg>
