<?xml version="1.0" encoding="utf-8"?>
<!-- Generator: Adobe Illustrator 18.1.1, SVG Export Plug-In . SVG Version: 6.00 Build 0)  -->
<svg version="1.1" id="zoomout" xmlns="http://www.w3.org/2000/svg" xmlns:xlink="http://www.w3.org/1999/xlink" x="0px" y="0px"
	 viewBox="0 90 612 612" enable-background="new 0 90 612 612" xml:space="preserve">
<path fill="#FFFFFF" d="M593,610.8l-145-123.3c-15-13.5-31-19.7-44-19.1c34.2-40.1,54.9-92.1,54.9-148.9
	C459,192.8,356.2,90,229.5,90S0,192.8,0,319.5S102.7,549,229.5,549c56.8,0,108.8-20.7,148.9-54.9c-0.6,12.9,5.6,29,19.1,44
	l123.3,145c21.1,23.5,55.6,25.4,76.6,4.4C618.5,666.4,616.5,631.9,593,610.8L593,610.8z M229.5,472.5c-84.5,0-153-68.5-153-153
	s68.5-153,153-153s153,68.5,153,153S314,472.5,229.5,472.5z M114.8,281.2h229.5v76.5H114.8V281.2z"/>
</svg>
